<svg height="503.392pt" viewBox="0 0 503.392 503.392" width="503.392pt" xmlns="http://www.w3.org/2000/svg"><path d="m115.695312 251.695312c0 75.113282 60.890626 136 136 136 75.113282 0 136-60.886718 136-136 0-75.109374-60.886718-136-136-136-75.074218.085938-135.914062 60.925782-136 136zm256 0c0 66.273438-53.726562 120-120 120-66.273437 0-120-53.726562-120-120 0-66.273437 53.726563-120 120-120 66.242188.074219 119.925782 53.757813 120 120zm0 0"/><path d="m251.695312 0-44.3125 99.695312h88.625zm0 39.390625 19.6875 44.304687h-39.375zm0 0"/><path d="m175.550781 112.878906-101.832031-39.160156 39.160156 101.832031zm-28.726562 6.097656-27.847657 27.847657-17.402343-45.25zm0 0"/><path d="m99.695312 207.382812-99.695312 44.3125 99.695312 44.3125zm-16 64-44.304687-19.6875 44.304687-19.6875zm0 0"/><path d="m73.71875 429.671875 101.832031-39.199219-62.671875-62.671875zm73.105469-45.257813-45.25 17.402344 17.402343-45.25zm0 0"/><path d="m251.695312 503.390625 44.3125-99.695313h-88.625zm0-39.390625-19.6875-44.304688h39.375zm0 0"/><path d="m327.839844 390.511719 101.832031 39.199219-39.199219-101.832032zm28.726562-6.097657 27.847656-27.847656 17.402344 45.25zm0 0"/><path d="m403.695312 296.007812 99.695313-44.3125-99.695313-44.3125zm16-64 44.304688 19.6875-44.304688 19.6875zm0 0"/><path d="m429.671875 73.71875-101.832031 39.160156 62.671875 62.671875zm-73.105469 45.257812 45.25-17.402343-17.402344 45.25zm0 0"/></svg>