<svg height="479pt" viewBox="0 -31 479.9071 479" width="479pt" xmlns="http://www.w3.org/2000/svg"><path d="m439.90625 265.550781v-.71875c-.046875-44.164062-35.835938-79.953125-80-80-4.121094 0-8.242188.316407-12.316406.941407-2.484375-8.570313-5.996094-16.808594-10.464844-24.535157 4.425781-7.371093 6.769531-15.808593 6.78125-24.40625-.003906-14.84375-6.875-28.847656-18.613281-37.933593-11.734375-9.089844-27.015625-12.234376-41.386719-8.523438-10.953125-29.0625-41.148438-46.113281-71.695312-40.480469-11.671876-35.386719-48.417969-56.015625-84.707032-47.5625-36.289062 8.453125-60.136718 43.195313-54.972656 80.097657-17.972656 12.179687-27.300781 33.636718-23.949219 55.089843-17.738281 3.25-31.089843 17.980469-32.589843 35.949219-1.496094 17.96875 9.234374 34.710938 26.1875 40.847656-1.484376 6.0625-2.246094 12.273438-2.273438 18.515625 0 1.597657.050781 3.09375.136719 4.628907-26.609375 10.742187-42.820313 37.886718-39.652344 66.410156 3.167969 28.523437 24.933594 51.453125 53.253906 56.09375 16.15625 25.40625 44.15625 40.816406 74.261719 40.867187 14.160156.023438 28.113281-3.398437 40.648438-9.976562 14.945312 17.972656 37.683593 27.570312 60.988281 25.746093 23.300781-1.828124 44.265625-14.851562 56.230469-34.929687 11.292968 12.945313 27.910156 19.980469 45.066406 19.082031 17.15625-.902344 32.945312-9.640625 42.820312-23.699218 11.25 7.3125 25.042969 9.597656 38.050782 6.300781 13.003906-3.292969 24.046874-11.867188 30.460937-23.652344 22.453125-4.898437 38.273437-25.039063 37.722656-48.011719-.554687-22.972656-17.324219-42.328125-39.988281-46.140625zm-157.832031-157.601562c11.402343-5.433594 24.933593-3.660157 34.554687 4.523437s13.535156 21.257813 10 33.382813l-.25-.28125c-1.597656-1.917969-3.199218-3.792969-4.894531-5.601563l-.0625-.070312c-1.722656-1.832032-3.503906-3.585938-5.335937-5.289063-.53125-.488281-1.082032-.941406-1.601563-1.421875-1.304687-1.175781-2.625-2.335937-4-3.441406-.710937-.574219-1.449219-1.121094-2.167969-1.679688-1.230468-.953124-2.472656-1.886718-3.746094-2.792968-.796874-.558594-1.597656-1.101563-2.398437-1.648438-1.242187-.832031-2.5-1.628906-3.769531-2.398437-.847656-.519531-1.703125-1.023438-2.574219-1.519531-1.28125-.738282-2.585937-1.449219-3.894531-2.136719-.882813-.464844-1.761719-.917969-2.65625-1.351563-1.351563-.664062-2.730469-1.289062-4.113282-1.90625-.878906-.382812-1.742187-.796875-2.632812-1.132812-1.480469-.609375-2.984375-1.160156-4.496094-1.707032-.625-.222656-1.222656-.484374-1.847656-.695312zm-250.167969 68.882812c0-13.257812 10.746094-24 24-24 .707031 0 1.347656.0625 2.113281.125l12.425781 1.074219-4.210937-11.738281c-6.664063-18.695313 1.367187-39.457031 18.882813-48.796875l5.335937-2.851563-1.296875-5.910156c-6.492188-30.265625 12.777344-60.0625 43.042969-66.554687 30.265625-6.492188 60.0625 12.777343 66.558593 43.042968l1.847657 8.671875 8.4375-2.71875c12.878906-4.160156 26.910156-2.707031 38.664062 4 11.75 6.707031 20.136719 18.050781 23.105469 31.253907l1.597656 7.113281c-.574218-.167969-1.175781-.296875-1.75-.457031-1.535156-.429688-3.070312-.839844-4.625-1.207032-.976562-.234375-1.960937-.449218-2.933594-.65625-1.570312-.324218-3.148437-.617187-4.738281-.871094-.960937-.160156-1.917969-.328124-2.894531-.464843-1.71875-.242188-3.457031-.417969-5.191406-.570313-.847656-.078125-1.679688-.183594-2.527344-.238281-2.625-.144531-5.226562-.246094-7.84375-.246094-38.390625.015625-74.101562 19.679688-94.644531 52.109375-21.746094-7.175781-45.515625-4.742187-65.355469 6.6875l-2.046875 1.195313c-3.019531 1.882812-5.910156 3.976562-8.648437 6.253906-.421876.34375-.855469.671875-1.261719 1.023437-2.566407 2.203126-4.992188 4.5625-7.257813 7.074219-.421875.46875-.839844.949219-1.253906 1.429688-2.230469 2.5625-4.296875 5.265625-6.183594 8.089843-.257812.390626-.480468.800782-.730468 1.183594-1.851563 2.875-3.511719 5.867188-4.976563 8.960938-.0625.140625-.160156.261718-.222656.40625-9.285157-3.554688-15.417969-12.472656-15.417969-22.414063zm403.921875 167.734375-4.550781.550782-1.832032 4.21875c-4.207031 9.824218-13.023437 16.917968-23.523437 18.921874-10.496094 2.007813-21.304687-1.339843-28.835937-8.921874l-8.089844-8.105469-4.800782 10.398437c-6.503906 14.089844-20.582031 23.136719-36.097656 23.199219-15.519531.0625-29.667968-8.871094-36.285156-22.910156l-8.433594-18.023438-6.398437 18.847657c-6.835938 20.207031-24.558594 34.777343-45.707031 37.578124-21.148438 2.796876-42.046876-6.664062-53.902344-24.402343l-4.359375-6.558594-6.625 4.261719c-11.480469 7.359375-24.839844 11.25-38.480469 11.210937-25.824219-.039062-49.660156-13.878906-62.496094-36.289062l-2.054687-3.617188-4.144531-.382812c-22.941407-2.226563-41.054688-20.464844-43.121094-43.425781-2.0625-22.960938 12.503906-44.136719 34.683594-50.421876l6.734374-1.863281-.984374-6.953125c-3.429688-24.371094 7.394531-48.554687 27.855468-62.234375l2-1.222656c17.835938-10.953125 39.882813-12.535156 59.097656-4.238281l6.695313 2.917968 3.519531-6.398437c16.3125-29.804687 47.164063-48.769531 81.125-49.863281 33.960938-1.09375 65.96875 15.847656 84.164063 44.542968l.046875.070313c6.125 9.585937 10.464844 20.203125 12.800781 31.335937l1.710937 8.234376 8.144532-2.113282c19.1875-4.992187 39.601562-.824218 55.292968 11.289063 15.695313 12.113281 24.898438 30.808593 24.929688 50.632812.007812 2.347657-.136719 4.699219-.421875 7.03125l-.609375 8.96875h9.03125c16.84375.09375 30.730469 13.222657 31.761719 30.035157 1.035156 16.808593-11.136719 31.542968-27.839844 33.699218zm0 0"/></svg>