<svg height="503pt" viewBox="0 -2 503.384 503" width="503pt" xmlns="http://www.w3.org/2000/svg"><path d="m443.6875 348.609375v-.722656c-.023438-22.066407-9.15625-43.144531-25.246094-58.246094l84.941406-37.753906-99.695312-44.3125v71.050781c-5.511719-3.199219-11.394531-5.71875-17.511719-7.503906.945313-6.371094 1.453125-12.796875 1.511719-19.234375.058594-72.082031-56.164062-131.675781-128.132812-135.804688-71.964844-4.132812-134.636719 48.636719-142.828126 120.253907-5.78125.519531-11.496093 1.648437-17.039062 3.375v-32.136719l-99.6875 44.3125 54.398438 24.210937c-7.035157 12.078125-10.730469 25.8125-10.710938 39.789063 0 1.601562.046875 3.097656.136719 4.632812-26.613281 10.742188-42.820313 37.886719-39.652344 66.410157 3.164063 28.523437 24.933594 51.449218 53.253906 56.09375 16.152344 25.40625 44.15625 40.8125 74.261719 40.863281 14.160156.027343 28.109375-3.398438 40.648438-9.976563 14.945312 17.972656 37.683593 27.574219 60.984374 25.746094 23.304688-1.824219 44.269532-14.847656 56.230469-34.929688 11.292969 12.949219 27.914063 19.984376 45.070313 19.082032 17.15625-.898438 32.945312-9.636719 42.820312-23.695313 11.25 7.3125 25.039063 9.59375 38.046875 6.300781 13.007813-3.292968 24.050781-11.867187 30.464844-23.652343 22.449219-4.902344 38.273437-25.039063 37.71875-48.011719-.550781-22.972656-17.320313-42.328125-39.984375-46.140625zm-24-116.410156 44.304688 19.6875-44.304688 19.6875zm-168-100.3125c66.242188.078125 119.925781 53.757812 120 120-.003906 5.445312-.371094 10.886719-1.101562 16.28125-.441407 0-.929688 0-1.378907 0-2.304687-.152344-4.621093-.207031-6.976562-.167969l-2.007813.046875c-2.972656.105469-5.941406.371094-8.886718.800781-12.203126-42.378906-48.144532-73.652344-91.804688-79.882812-43.660156-6.230469-86.914062 13.742187-110.484375 51.019531-.582031-.199219-1.191406-.3125-1.773437-.496094-1.898438-.585937-3.808594-1.160156-5.761719-1.601562-2.265625-.519531-4.558594-.878907-6.863281-1.191407-.25 0-.488282-.09375-.726563-.121093-.417969-.054688-.800781-.160157-1.242187-.207031 7.878906-59.730469 58.761718-104.398438 119.007812-104.480469zm-168 100.3125v14.402343c-.863281.496094-1.679688 1.0625-2.519531 1.597657-.59375.367187-1.183594.730469-1.761719 1.113281-2.273438 1.503906-4.472656 3.125-6.582031 4.855469-.335938.28125-.648438.585937-.984375.871093-1.777344 1.519532-3.476563 3.121094-5.105469 4.800782-.542969.550781-1.078125 1.113281-1.597656 1.679687-.410157.441407-.800781.800781-1.242188 1.289063l-24.519531-10.921875zm355.921875 195.425781-4.554687.550781-1.832032 4.214844c-4.203125 9.828125-13.019531 16.921875-23.519531 18.925781s-21.308594-1.339844-28.839844-8.925781l-8.085937-8.101563-4.800782 10.398438c-6.503906 14.089844-20.582031 23.136719-36.101562 23.199219s-29.667969-8.871094-36.28125-22.910157l-8.433594-18.023437-6.398437 18.847656c-6.835938 20.207031-24.558594 34.777344-45.707031 37.574219-21.148438 2.796875-42.050782-6.664062-53.902344-24.398438l-4.359375-6.5625-6.625 4.265626c-11.480469 7.359374-24.84375 11.25-38.480469 11.207031-25.824219-.035157-49.660156-13.875-62.496094-36.285157l-2.054687-3.617187-4.144531-.382813c-22.945313-2.226562-41.054688-20.46875-43.121094-43.425781-2.066406-22.960937 12.5-44.140625 34.679687-50.421875l6.738281-1.867187-.984374-6.949219c-2.410157-16.867188 2.039062-33.992188 12.351562-47.554688 5.929688-7.972656 13.667969-14.417968 22.582031-18.808593 14.683594-7.195313 31.542969-8.574219 47.203125-3.863281l.261719.074218c2.230469.671875 4.417969 1.472656 6.554687 2.398438l6.710938 2.953125 3.527344-6.402344c19.277344-35.21875 58.433594-54.722656 98.160156-48.890625 39.722656 5.832031 71.621094 35.769531 79.960938 75.042969l1.742187 8.183593 8.105469-2.101562c7.164062-1.832031 14.585937-2.4375 21.949218-1.792969 2.117188.171875 4.222657.464844 6.304688.871094 30.152344 5.773437 51.960938 32.140625 51.96875 62.839844.003906 2.351562-.136719 4.699219-.421875 7.035156l-.609375 8.964844h9.03125c16.84375.09375 30.726562 13.226562 31.761719 30.035156 1.035156 16.8125-11.136719 31.546875-27.839844 33.703125zm0 0"/><path d="m251.6875.191406-44.3125 99.695313h88.625zm0 39.394532 19.6875 44.300781h-39.375zm0 0"/><path d="m175.535156 113.070312-101.824218-39.160156 39.160156 101.832032zm-28.710937 6.097657-27.855469 27.847656-17.402344-45.246094zm0 0"/><path d="m429.664062 73.910156-101.824218 39.160156 62.664062 62.671876zm-73.113281 45.257813 45.257813-17.398438-17.402344 45.246094zm0 0"/></svg>