<svg height="479pt" viewBox="0 -1 479.9071 479" width="479pt" xmlns="http://www.w3.org/2000/svg"><path d="m439.90625 325.902344v-.722656c-.046875-44.160157-35.835938-79.949219-80-80-4.128906.003906-8.253906.320312-12.335938.945312-5.417968-18.671875-15.601562-35.613281-29.550781-49.160156 28.445313-39.820313 22.386719-94.667969-14.070312-127.316406-36.457031-32.648438-91.636719-32.648438-128.089844 0-36.457031 32.648437-42.519531 87.496093-14.070313 127.316406-6.292968 6.101562-11.84375 12.929687-16.527343 20.335937-24.402344-8.152343-51.234375-4.074219-72.109375 10.960938-20.875 15.035156-33.246094 39.195312-33.246094 64.917969 0 1.601562.050781 3.097656.136719 4.632812-26.609375 10.742188-42.820313 37.886719-39.652344 66.410156 3.167969 28.523438 24.933594 51.453125 53.253906 56.09375 16.15625 25.40625 44.15625 40.8125 74.261719 40.863282 14.160156.027343 28.113281-3.394532 40.648438-9.972657 14.945312 17.96875 37.683593 27.570313 60.988281 25.742188 23.300781-1.824219 44.265625-14.847657 56.230469-34.925781 11.292968 12.945312 27.910156 19.980468 45.066406 19.078124 17.15625-.898437 32.945312-9.636718 42.820312-23.695312 11.25 7.3125 25.042969 9.59375 38.050782 6.300781 13.003906-3.292969 24.046874-11.867187 30.460937-23.652343 22.453125-4.902344 38.273437-25.039063 37.722656-48.011719-.554687-22.972657-17.324219-42.328125-39.988281-46.140625zm-200-264.722656c29.738281-.003907 57.023438 16.484374 70.847656 42.808593 13.824219 26.328125 11.90625 58.148438-4.980468 82.625-.210938-.152343-.433594-.28125-.648438-.433593-.96875-.695313-1.984375-1.324219-2.976562-1.988282-1.601563-1.082031-3.199219-2.144531-4.863282-3.128906-1.121094-.671875-2.265625-1.28125-3.402344-1.914062-1.597656-.878907-3.199218-1.734376-4.796874-2.535157-1.203126-.589843-2.402344-1.136719-3.632813-1.679687-1.640625-.726563-3.289063-1.417969-4.960937-2.070313-1.242188-.480469-2.492188-.941406-3.753907-1.386719-1.710937-.597656-3.4375-1.136718-5.183593-1.65625-1.246094-.367187-2.496094-.734374-3.75-1.054687-1.832032-.472656-3.671876-.863281-5.527344-1.238281-1.210938-.25-2.402344-.523438-3.625-.730469-2.054688-.351563-4.128906-.589844-6.199219-.800781-1.03125-.109375-2.058594-.277344-3.097656-.367188-3.160157-.296875-6.296875-.449218-9.449219-.449218-3.148438 0-6.285156.152343-9.40625.417968-1.046875.089844-2.070312.257813-3.121094.375-2.0625.234375-4.125.480469-6.175781.800782-1.222656.207031-2.398437.480468-3.632813.726562-1.847656.378906-3.6875.800781-5.503906 1.234375-1.277344.328125-2.527344.703125-3.789062 1.070313-1.730469.511718-3.433594 1.050781-5.136719 1.640624-1.28125.441407-2.542969.914063-3.808594 1.410157-1.644531.636719-3.269531 1.316406-4.878906 2.039062-1.25.550781-2.480469 1.109375-3.714844 1.710938-1.597656.800781-3.199219 1.601562-4.726562 2.480469-1.175781.648437-2.351563 1.273437-3.496094 1.960937-1.597656.957031-3.199219 2-4.742187 3.046875-1.035157.6875-2.082032 1.34375-3.097657 2.070312-.207031.144532-.421875.273438-.632812.425782-16.871094-24.476563-18.78125-56.289063-4.960938-82.605469 13.824219-26.320313 41.097657-42.800781 70.824219-42.804687zm195.921875 343.738281-4.550781.550781-1.832032 4.21875c-4.207031 9.824219-13.023437 16.917969-23.523437 18.921875-10.496094 2.003906-21.304687-1.339844-28.835937-8.921875l-8.089844-8.105469-4.800782 10.398438c-6.503906 14.089843-20.582031 23.136719-36.097656 23.199219-15.519531.0625-29.667968-8.871094-36.285156-22.910157l-8.433594-18.023437-6.398437 18.847656c-6.835938 20.207031-24.558594 34.777344-45.707031 37.574219-21.148438 2.800781-42.046876-6.660157-53.902344-24.398438l-4.359375-6.558593-6.625 4.261718c-11.480469 7.359375-24.839844 11.25-38.480469 11.207032-25.824219-.035157-49.660156-13.875-62.496094-36.285157l-2.054687-3.617187-4.144531-.382813c-22.941407-2.226562-41.054688-20.46875-43.121094-43.425781-2.0625-22.960938 12.503906-44.140625 34.683594-50.421875l6.734374-1.867187-.984374-6.949219c-.421876-3-.625-6.023438-.617188-9.050781 0-21.585938 10.882812-41.722657 28.945312-53.550782 18.0625-11.824218 40.871094-13.746094 60.65625-5.113281l6.695313 2.914063 3.519531-6.398438c16.878906-30.71875 49.136719-49.820312 84.183594-49.851562 2.839844 0 5.667969.128906 8.488281.378906 41.960938 3.761718 76.589844 34.394531 85.441407 75.582031l1.71875 8.21875 8.128906-2.113281c19.1875-4.992188 39.605468-.824219 55.300781 11.292968 15.695313 12.117188 24.898437 30.816407 24.921875 50.640626.007812 2.351562-.136719 4.699218-.421875 7.035156l-.609375 8.964844h9.03125c16.84375.09375 30.730469 13.226562 31.761719 30.035156 1.035156 16.8125-11.136719 31.546875-27.839844 33.703125zm0 0"/><path d="m244.132812 29.375 20.070313 1.140625-24.296875-30.0625-24.292969 30.0625 20.070313-1.140625c2.8125-.183594 5.636718-.183594 8.449218 0zm0 0"/><path d="m179.277344 47.109375 15.132812-9.761719-37.214844-10.015625-1.992187 38.441407 13.976563-11.40625c3.226562-2.605469 6.597656-5.027344 10.097656-7.257813zm0 0"/><path d="m131.730469 112.621094c1.054687-4.039063 2.335937-8.011719 3.839843-11.902344l6.523438-16.800781-36 13.792969 21.015625 32.367187zm0 0"/><path d="m348.085938 112.621094 4.605468 17.457031 21.046875-32.382813-36-13.792968 6.523438 16.800781c1.5 3.894531 2.777343 7.875 3.824219 11.917969zm0 0"/><path d="m310.636719 54.367188 13.976562 11.40625-1.992187-38.398438-37.21875 9.972656 15.136718 9.761719c3.5 2.230469 6.871094 4.652344 10.097657 7.257813zm0 0"/><path d="m352.707031 152.285156-4.605469 17.457032c-1.054687 4.039062-2.335937 8.011718-3.839843 11.902343l-6.523438 16.800781 36-13.792968zm0 0"/><path d="m135.570312 181.644531c-1.503906-3.890625-2.785156-7.863281-3.839843-11.902343l-4.621094-17.457032-21.050781 32.382813 36 13.792969zm0 0"/></svg>