<svg height="479pt" viewBox="0 0 479 479.97804" width="479pt" xmlns="http://www.w3.org/2000/svg"><path d="m440.398438 160.707031v-.730469c-.050782-44.160156-35.839844-79.949218-80-80-4.132813.003907-8.261719.316407-12.34375.945313-12.246094-42.355469-48.195313-73.589844-91.84375-79.804687-43.648438-6.210938-86.882813 13.75-110.460938 51.003906-24.398438-8.148438-51.222656-4.074219-72.097656 10.957031-20.875 15.027344-33.25 39.179687-33.253906 64.898437 0 1.601563 0 3.097657.132812 4.632813-26.609375 10.742187-42.816406 37.886719-39.652344 66.410156 3.167969 28.523438 24.933594 51.449219 53.253906 56.09375 16.15625 25.402344 44.15625 40.8125 74.265626 40.863281 14.160156.027344 28.113281-3.398437 40.65625-9.972656 14.949218 17.964844 37.691406 27.554688 60.988281 25.71875 23.300781-1.832031 44.261719-14.863281 56.21875-34.945312 11.289062 12.945312 27.90625 19.984375 45.0625 19.082031s32.945312-9.640625 42.816406-23.699219c11.25 7.3125 25.042969 9.597656 38.050781 6.304688 13.007813-3.296875 24.046875-11.867188 30.460938-23.65625 22.410156-4.929688 38.1875-25.042969 37.636718-47.980469-.550781-22.9375-17.273437-42.273437-39.890624-46.121094zm-4.089844 79.007813-4.550782.550781-1.824218 4.214844c-4.207032 9.828125-13.023438 16.921875-23.519532 18.925781-10.5 2.003906-21.308593-1.339844-28.839843-8.925781l-8.097657-8.101563-4.800781 10.398438c-6.5 14.089844-20.578125 23.140625-36.09375 23.199218-15.519531.0625-29.667969-8.871093-36.28125-22.910156l-8.441406-18.023437-6.398437 18.847656c-6.835938 20.203125-24.554688 34.769531-45.703126 37.566406-21.144531 2.796875-42.042968-6.660156-53.898437-24.390625l-4.367187-6.558594-6.625 4.261719c-11.476563 7.359375-24.835938 11.25-38.46875 11.207031-25.828126-.039062-49.660157-13.878906-62.496094-36.285156l-2.066406-3.617187-4.136719-.382813c-22.941407-2.226562-41.054688-20.46875-43.121094-43.425781-2.0625-22.960937 12.503906-44.140625 34.683594-50.421875l6.734375-1.867188-.984375-6.949218c-.417969-3-.625-6.023438-.613281-9.050782-.003907-21.589843 10.878906-41.722656 28.941406-53.550781 18.0625-11.824219 40.871094-13.746093 60.65625-5.113281l6.695312 2.921875 3.523438-6.398437c19.273437-35.222657 58.429687-54.726563 98.152344-48.898438 39.726562 5.832031 71.625 35.765625 79.964843 75.039062l1.738281 8.183594 8.09375-2.101562c19.1875-4.992188 39.601563-.824219 55.296876 11.289062 15.695312 12.113282 24.902343 30.804688 24.9375 50.628906 0 2.351563-.140626 4.699219-.425782 7.035157l-.597656 8.964843h9.023438c16.839843.097657 30.722656 13.230469 31.753906 30.039063s-11.140625 31.542969-27.84375 33.699219zm0 0"/><path d="m96.398438 310.464844-7.121094 13.855468c-3.960938 7.714844-16.878906 33.664063-16.878906 43.65625 0 13.257813 10.742187 24 24 24 13.253906 0 24-10.742187 24-24 0-9.992187-12.921876-35.941406-16.882813-43.65625zm0 65.511718c-4.417969 0-8-3.582031-8-8 1.789062-7.492187 4.472656-14.746093 8-21.597656 3.523437 6.851563 6.207031 14.105469 8 21.597656 0 4.417969-3.582032 8-8 8zm0 0"/><path d="m152.398438 398.464844-7.121094 13.855468c-3.960938 7.714844-16.878906 33.664063-16.878906 43.65625 0 13.257813 10.742187 24 24 24 13.253906 0 24-10.742187 24-24 0-9.992187-12.921876-35.941406-16.882813-43.65625zm0 65.511718c-4.417969 0-8-3.582031-8-8 1.789062-7.492187 4.472656-14.746093 8-21.597656 3.523437 6.851563 6.207031 14.105469 8 21.597656 0 4.417969-3.582032 8-8 8zm0 0"/><path d="m208.398438 334.464844-7.121094 13.855468c-3.960938 7.714844-16.878906 33.664063-16.878906 43.65625 0 13.257813 10.742187 24 24 24 13.253906 0 24-10.742187 24-24 0-9.992187-12.921876-35.941406-16.882813-43.65625zm0 65.511718c-4.417969 0-8-3.582031-8-8 1.789062-7.492187 4.472656-14.746093 8-21.597656 3.523437 6.851563 6.207031 14.105469 8 21.597656 0 4.417969-3.582032 8-8 8zm0 0"/><path d="m295.515625 316.320312-7.117187-13.855468-7.121094 13.855468c-3.960938 7.714844-16.878906 33.664063-16.878906 43.65625 0 13.257813 10.742187 24 24 24 13.253906 0 24-10.742187 24-24 0-9.992187-12.921876-35.941406-16.882813-43.65625zm-7.117187 51.65625c-4.417969 0-8-3.582031-8-8 1.789062-7.492187 4.472656-14.746093 8-21.597656 3.523437 6.851563 6.207031 14.105469 8 21.597656 0 4.417969-3.582032 8-8 8zm0 0"/><path d="m400.398438 326.464844-7.121094 13.855468c-3.960938 7.714844-16.878906 33.664063-16.878906 43.65625 0 13.257813 10.742187 24 24 24 13.253906 0 24-10.742187 24-24 0-9.992187-12.921876-35.941406-16.882813-43.65625zm0 65.511718c-4.417969 0-8-3.582031-8-8 1.789062-7.492187 4.472656-14.746093 8-21.597656 3.523437 6.851563 6.207031 14.105469 8 21.597656 0 4.417969-3.582032 8-8 8zm0 0"/><path d="m336.398438 374.464844-7.121094 13.855468c-3.960938 7.714844-16.878906 33.664063-16.878906 43.65625 0 13.257813 10.742187 24 24 24 13.253906 0 24-10.742187 24-24 0-9.992187-12.921876-35.941406-16.882813-43.65625zm0 65.511718c-4.417969 0-8-3.582031-8-8 1.789062-7.492187 4.472656-14.746093 8-21.597656 3.523437 6.851563 6.207031 14.105469 8 21.597656 0 4.417969-3.582032 8-8 8zm0 0"/></svg>