<svg height="480pt" viewBox="0 0 480 480.34593" width="480pt" xmlns="http://www.w3.org/2000/svg"><path d="m73.3125 328.128906-46.230469 120.21875 54.933594-54.953125 25.679687 25.679688 46.234376-120.214844-54.9375 54.941406zm28.289062 62.226563-19.585937-19.585938-12.933594 12.9375 10.328125-26.882812 19.582032 19.578125 12.9375-12.9375zm0 0"/><path d="m201.3125 360.128906-46.230469 120.21875 54.933594-54.953125 25.679687 25.679688 46.234376-120.214844-54.9375 54.941406zm28.289062 62.226563-19.585937-19.585938-12.933594 12.9375 10.328125-26.882812 19.582032 19.578125 12.9375-12.9375zm0 0"/><path d="m345.3125 328.128906-46.230469 120.21875 54.933594-54.953125 25.679687 25.679688 46.234376-120.214844-54.9375 54.941406zm28.289062 62.226563-19.585937-19.585938-12.933594 12.9375 10.328125-26.882812 19.582032 19.578125 12.9375-12.9375zm0 0"/><path d="m440.082031 160.746094v-.71875c-.050781-44.164063-35.839843-79.953125-80-80-4.136719 0-8.265625.316406-12.351562.941406-12.21875-42.375-48.167969-73.636719-91.832031-79.851562-43.660157-6.214844-86.90625 13.769531-110.464844 51.054687-24.398438-8.152344-51.222656-4.078125-72.097656 10.953125s-33.25 39.179688-33.253907 64.902344c0 1.597656.046875 3.09375.136719 4.628906-26.613281 10.742188-42.820312 37.886719-39.65625 66.410156 3.167969 28.523438 24.933594 51.453125 53.253906 56.09375 16.15625 25.40625 44.15625 40.816406 74.265625 40.867188 14.15625.023437 28.109375-3.398438 40.648438-9.976563 14.949219 17.96875 37.691406 27.558594 60.992187 25.726563 23.304688-1.835938 44.265625-14.867188 56.222656-34.953125 11.292969 12.949219 27.910157 19.984375 45.066407 19.082031 17.15625-.898438 32.945312-9.636719 42.820312-23.695312 11.25 7.3125 25.042969 9.59375 38.050781 6.300781 13.007813-3.292969 24.046876-11.867188 30.460938-23.652344 22.402344-4.941406 38.171875-25.054687 37.621094-47.988281-.554688-22.9375-17.269532-42.269532-39.882813-46.125zm-4.082031 79.015625-4.550781.550781-1.832031 4.21875c-4.207032 9.824219-13.023438 16.917969-23.519532 18.921875-10.5 2.007813-21.308594-1.339844-28.839844-8.921875l-8.089843-8.105469-4.800781 10.398438c-6.503907 14.089843-20.578126 23.136719-36.097657 23.199219s-29.667969-8.871094-36.285156-22.910157l-8.429687-18.023437-6.402344 18.847656c-6.832032 20.207031-24.554688 34.777344-45.703125 37.578125-21.148438 2.796875-42.050781-6.664063-53.902344-24.402344l-4.363281-6.558593-6.621094 4.261718c-11.484375 7.359375-24.84375 11.25-38.480469 11.210938-25.828125-.039063-49.660156-13.878906-62.496093-36.289063l-2.058594-3.617187-4.140625-.382813c-22.945313-2.226562-41.058594-20.464843-43.121094-43.425781-2.066406-22.960938 12.5-44.136719 34.679687-50.421875l6.734376-1.863281-.984376-6.953125c-.417968-2.996094-.625-6.019531-.613281-9.046875-.003906-21.589844 10.878907-41.726563 28.941407-53.554688 18.0625-11.824218 40.871093-13.746094 60.65625-5.109375l6.699218 2.917969 3.519532-6.398438c19.277343-35.214843 58.429687-54.714843 98.148437-48.886718 39.71875 5.832031 71.617187 35.761718 79.960937 75.03125l1.746094 8.183594 8.101563-2.105469c19.1875-4.992188 39.601562-.824219 55.296875 11.289062 15.691406 12.113281 24.898437 30.808594 24.929687 50.632813.003907 2.347656-.136719 4.699218-.425781 7.03125l-.605469 8.96875h9.03125c16.839844.09375 30.726563 13.222656 31.761719 30.035156 1.03125 16.808594-11.140625 31.542969-27.84375 33.699219zm0 0"/></svg>